<!-- Generated by IcoMoon.io -->
<svg version="1.1" xmlns="http://www.w3.org/2000/svg" width="44" height="32" viewBox="0 0 44 32">
<path fill="none" stroke="#00b068" stroke-linejoin="round" stroke-linecap="round" stroke-miterlimit="4" stroke-width="2" d="M41.5 5.5v21c0 1.193-0.474 2.338-1.318 3.182s-1.989 1.318-3.182 1.318h-30c-1.193 0-2.338-0.474-3.182-1.318s-1.318-1.989-1.318-3.182v-21M41.5 5.5c0-1.193-0.474-2.338-1.318-3.182s-1.989-1.318-3.182-1.318h-30c-1.193 0-2.338 0.474-3.182 1.318s-1.318 1.988-1.318 3.182M41.5 5.5v0.486c0 0.768-0.197 1.524-0.571 2.195s-0.915 1.234-1.569 1.637l-15 9.23c-0.71 0.437-1.527 0.669-2.36 0.669s-1.65-0.231-2.36-0.669l-15-9.228c-0.654-0.403-1.194-0.967-1.569-1.637s-0.571-1.426-0.571-2.195v-0.488"></path>
</svg>
