<!-- Generated by IcoMoon.io -->
<svg version="1.1" xmlns="http://www.w3.org/2000/svg" width="32" height="32" viewBox="0 0 32 32">
<path fill="#14c57c" d="M16 0c4.243 0 8.313 1.686 11.314 4.686s4.686 7.070 4.686 11.314-1.686 8.313-4.686 11.314c-3 3.001-7.070 4.686-11.314 4.686s-8.313-1.686-11.314-4.686c-3.001-3-4.686-7.070-4.686-11.314s1.686-8.313 4.686-11.314c3.001-3.001 7.070-4.686 11.314-4.686zM14.007 19.157l-3.554-3.557c-0.127-0.127-0.279-0.229-0.445-0.297s-0.345-0.104-0.525-0.104c-0.18 0-0.359 0.035-0.525 0.104s-0.318 0.17-0.445 0.297c-0.257 0.257-0.402 0.606-0.402 0.97s0.145 0.713 0.402 0.97l4.526 4.526c0.127 0.128 0.278 0.23 0.445 0.299s0.345 0.105 0.526 0.105c0.18 0 0.359-0.036 0.526-0.105s0.318-0.171 0.445-0.299l9.371-9.374c0.129-0.127 0.232-0.278 0.302-0.445s0.107-0.346 0.108-0.527c0.001-0.181-0.034-0.36-0.103-0.528s-0.17-0.32-0.298-0.448c-0.128-0.128-0.28-0.23-0.447-0.299s-0.347-0.104-0.528-0.104-0.36 0.037-0.527 0.107c-0.167 0.070-0.318 0.173-0.445 0.302l-8.405 8.405z"></path>
</svg>
